<svg width="22" height="23" viewBox="0 0 22 23" fill="none" xmlns="http://www.w3.org/2000/svg">
<path d="M11.8075 0.852487C5.10973 0.377803 0.481262 5.74608 0.455924 11.4078C0.422139 17.3025 5.30398 22.2823 10.9037 22.0234C16.816 22.2478 21.4445 17.337 21.4952 11.5976C21.5458 5.46125 16.8667 1.21497 11.8075 0.852487ZM13.7839 6.85942C13.8177 7.35136 13.3954 7.2219 13.1166 7.23053C12.4747 7.26505 11.7399 7.01479 11.7484 8.17129C11.7568 9.03435 11.9088 9.43995 12.8463 9.31912C13.1757 9.27597 13.9781 9.0516 13.7332 9.77657C13.5643 10.303 14.1386 11.5286 12.7957 11.3387C11.9173 11.2179 11.723 11.589 11.7568 12.4175C11.8244 13.9193 11.7652 15.4296 11.7906 16.9313C11.799 17.4751 11.6977 17.7253 11.0811 17.734C9.55237 17.7512 9.55237 17.7858 9.55237 16.2409V14.4975C9.55237 13.8416 9.53548 13.1943 9.56082 12.547C9.58615 11.8134 9.62838 11.2697 8.55573 11.2956C7.72801 11.3128 8.26857 10.4411 8.15032 9.9837C8.04897 9.57806 8.15877 9.20695 8.70777 9.29326C9.47636 9.42272 9.58616 9.01706 9.56927 8.3525C9.55238 7.72246 9.40879 7.06658 9.73819 6.4538C10.3041 5.37498 12.5761 4.58957 13.5643 5.2455C14.1048 5.59072 13.7416 6.31569 13.7839 6.85942Z" fill="#00AFD2"/>
</svg>
