<svg width="15" height="15" viewBox="0 0 15 15" fill="none" xmlns="http://www.w3.org/2000/svg">
<path d="M7.62391 0.299099C3.43575 0.237184 0.636311 3.56374 0.471638 7.06477C0.268542 11.3257 3.74862 14.7141 7.45924 14.4946C11.3894 14.6297 14.348 11.2919 14.4468 7.6614C14.5621 3.46805 11.2906 0.349757 7.62391 0.299099ZM10.1214 7.3068C9.66036 9.04605 8.10146 10.3294 6.34496 10.3519C5.56551 10.3632 4.80801 10.3069 4.00112 9.79469C4.83546 9.87349 5.47219 9.73274 6.04306 9.16425C5.54355 8.9391 5.02758 8.78715 4.76959 8.26931C4.91779 8.11734 5.21969 8.29744 5.30203 8.01038C4.99464 7.84152 4.65432 7.72897 4.44024 7.40251C4.03405 6.80587 4.03954 6.78334 4.80253 6.68766C4.4622 6.27113 4.06699 5.8884 4.17677 5.29176C4.19872 5.15667 4.17677 5.00469 4.31399 4.93715C4.47318 4.86398 4.55003 5.02158 4.62139 5.11164C5.17578 5.79833 5.97719 6.03472 6.75664 6.28801C7.16283 6.41747 7.48669 6.40621 7.48669 5.75891C7.4812 4.79641 8.61195 4.10971 9.40237 4.59377C9.8415 4.85832 10.2202 5.00469 10.7143 4.7908C10.577 4.9484 10.4398 5.11161 10.2532 5.33113C10.4233 5.37053 10.5661 5.40431 10.7362 5.44371C10.1708 5.96717 10.2861 6.68764 10.1214 7.3068Z" fill="#00AFD2"/>
</svg>
